<svg id="a" data-name="Layer 1" xmlns="http://www.w3.org/2000/svg" viewBox="0 0 128 128">
  <path d="m0,64C0,28.65,28.65,0,64,0s64,28.65,64,64v64h-64C28.65,128,0,99.35,0,64Z" fill-rule="evenodd" stroke-width="0"/>
  <path d="m116.91,64v52.91h-52.91c-29.22,0-52.91-23.69-52.91-52.91S34.78,11.09,64,11.09s52.91,23.69,52.91,52.91Z" fill="#fff" fill-rule="evenodd" stroke-width="0"/>
  <path d="m36.14,88.57c3.56,2.21,7.71,3.32,12.44,3.32,3.81,0,7.25-.77,10.32-2.3,3.07-1.6,5.59-3.75,7.56-6.45,1.97-2.76,3.29-5.87,3.96-9.31h-11.7c-.8,2.33-2.09,4.18-3.87,5.53-1.72,1.35-3.81,2.03-6.27,2.03s-4.58-.58-6.36-1.75c-1.78-1.23-3.19-2.92-4.24-5.07-.98-2.15-1.47-4.64-1.47-7.46s.49-5.31,1.47-7.47c1.04-2.15,2.46-3.81,4.24-4.98,1.78-1.23,3.9-1.84,6.36-1.84s4.36.65,6.08,1.94c1.72,1.23,3.01,2.95,3.87,5.16h11.8c-1.11-5.16-3.59-9.37-7.46-12.63-3.87-3.32-8.63-4.98-14.28-4.98-4.73,0-8.88,1.14-12.44,3.41-3.5,2.21-6.24,5.22-8.2,9.03-1.9,3.75-2.86,7.86-2.86,12.35s.95,8.63,2.86,12.44c1.97,3.75,4.7,6.76,8.2,9.03Z" fill-rule="evenodd" stroke-width="0"/>
  <path d="m86.14,43.59h-11.06v47h11.52v-24.51c0-4.36,1.17-7.53,3.5-9.49.98-.92,2.15-1.6,3.5-2.03,1.41-.43,3.13-.65,5.16-.65h2.95v-10.87h-2.86c-5.65,0-9.89,1.87-12.72,5.62v-5.07Z" fill-rule="evenodd" stroke-width="0"/>
</svg>